<?xml version="1.0" encoding="UTF-8" ?>
<!DOCTYPE svg PUBLIC "-//W3C//DTD SVG 1.1//EN" "http://www.w3.org/Graphics/SVG/1.1/DTD/svg11.dtd">
<svg width="368pt" height="152pt" viewBox="0 0 1536 639" version="1.1" xmlns="http://www.w3.org/2000/svg">
<path fill="#2e3192" opacity="1.00" d=" M 291.86 24.93 C 319.20 19.30 347.14 16.42 375.06 16.72 C 406.04 16.92 436.91 21.37 466.89 29.08 C 488.38 34.33 509.80 40.01 530.58 47.64 C 551.90 55.36 572.43 65.08 592.64 75.31 C 573.23 112.61 553.74 149.91 532.10 185.98 C 527.47 193.21 523.40 200.89 518.02 207.58 C 512.67 206.33 509.29 201.13 504.69 198.31 C 484.70 183.44 460.65 175.21 436.57 169.79 C 420.59 166.36 404.23 165.42 387.96 164.65 C 374.14 164.50 360.06 166.20 347.18 171.39 C 339.97 174.41 332.74 178.99 329.34 186.32 C 326.22 193.71 326.46 203.03 331.68 209.44 C 337.11 216.06 345.15 219.74 352.92 222.88 C 365.05 227.58 377.61 231.06 389.88 235.39 C 416.30 244.03 443.55 250.00 469.70 259.51 C 485.65 265.34 501.46 272.41 514.73 283.19 C 526.14 292.86 535.86 304.47 543.71 317.18 C 550.84 328.48 555.08 341.24 560.81 353.25 C 579.14 241.98 597.12 130.65 615.34 19.37 C 681.43 19.41 747.52 19.37 813.62 19.39 C 803.75 83.01 793.99 146.65 784.19 210.28 C 787.23 210.28 790.28 210.27 793.33 210.31 C 805.82 195.71 818.24 181.04 830.59 166.32 C 891.84 166.22 953.08 166.31 1014.33 166.28 C 996.07 117.70 977.94 69.08 959.62 20.53 C 1027.71 20.51 1095.79 20.46 1163.88 20.55 C 1177.49 68.19 1191.39 115.75 1205.06 163.37 C 1209.41 163.39 1213.76 163.38 1218.12 163.39 C 1247.69 115.40 1277.32 67.45 1306.82 19.42 C 1373.91 19.35 1440.99 19.39 1508.08 19.40 C 1437.63 116.51 1367.21 213.64 1296.77 310.76 C 1289.56 320.90 1281.94 330.78 1275.00 341.08 C 1264.94 433.16 1255.33 525.31 1245.41 617.41 C 1115.01 617.35 984.60 617.42 854.19 617.37 C 823.34 532.98 792.36 448.65 761.48 364.28 C 757.97 364.27 754.46 364.27 750.97 364.29 C 738.54 447.92 726.13 531.55 713.61 615.16 C 648.48 615.16 583.35 615.17 518.21 615.16 C 525.06 572.69 532.06 530.25 538.95 487.79 C 539.63 483.43 540.53 479.10 540.90 474.70 C 533.42 489.30 524.42 503.17 513.61 515.53 C 502.17 528.79 488.85 540.24 475.31 551.26 C 458.50 564.92 440.82 577.70 421.46 587.53 C 403.63 596.65 384.47 602.95 364.93 607.20 C 343.26 611.80 321.23 615.06 299.07 615.60 C 275.53 616.34 252.04 613.73 228.82 610.08 C 205.86 606.42 182.88 602.29 160.66 595.30 C 126.05 584.28 93.12 568.45 61.80 550.15 C 54.55 545.84 47.20 541.63 40.44 536.58 C 39.40 535.56 37.20 534.26 38.57 532.65 C 62.75 490.43 90.14 450.11 113.44 407.38 C 115.59 403.70 117.05 399.60 119.75 396.26 C 135.99 408.15 152.02 420.47 169.59 430.42 C 181.73 437.35 194.44 443.59 208.05 447.04 C 230.62 452.94 253.64 457.91 277.04 458.59 C 293.65 459.06 311.00 456.38 325.10 447.09 C 332.37 442.34 335.82 433.41 335.88 424.99 C 335.74 418.83 331.26 413.83 326.44 410.52 C 318.51 405.13 309.27 402.13 300.12 399.57 C 288.18 396.36 275.97 394.34 263.99 391.35 C 245.13 386.79 226.51 380.76 209.25 371.80 C 193.36 363.56 177.99 354.22 163.88 343.17 C 145.88 328.91 128.85 311.39 121.98 288.92 C 111.08 256.28 107.88 219.99 118.98 186.96 C 123.88 173.07 129.49 159.39 136.13 146.23 C 147.14 124.38 162.32 104.86 179.34 87.37 C 210.03 56.64 249.38 34.34 291.86 24.93 M 928.99 293.10 C 970.74 395.80 1012.27 498.59 1054.21 601.21 C 1061.70 512.46 1069.03 423.70 1076.55 334.95 C 1076.96 331.67 1075.08 328.75 1074.12 325.74 C 1055.74 276.67 1037.29 227.63 1018.95 178.55 C 988.89 216.67 959.01 254.95 928.99 293.10 Z" />
<path fill="#e20a17" opacity="1.00" d=" M 844.24 153.84 C 875.94 110.99 907.17 67.79 938.94 25.00 C 955.68 67.95 972.37 110.92 989.31 153.78 C 982.22 154.58 975.10 153.51 968.00 154.11 C 926.74 153.83 885.50 154.43 844.24 153.84 Z" />
</svg>